<svg width="141" height="41" viewBox="0 0 141 41" fill="none" xmlns="http://www.w3.org/2000/svg">
<path d="M31.5294 14.493C31.5294 19.1631 28.7623 23.1894 24.7793 25.0163C26.4612 23.6309 27.5322 21.5292 27.5322 19.1772C27.5322 15.0454 24.2259 11.6854 20.112 11.6017C20.0574 11.5979 20.0075 11.5979 19.9529 11.5979C19.8983 11.5979 19.8485 11.5979 19.7939 11.6017C18.2673 11.6845 17.0588 12.9476 17.0588 14.492V28.9626C17.0588 33.756 13.1699 37.645 8.37646 37.645V14.493C8.37646 8.1005 13.5605 2.9165 19.9529 2.9165C26.3454 2.9165 31.5294 8.1005 31.5294 14.493Z" fill="white"/>
<path d="M21.9992 16.5396C23.1294 15.4094 23.1294 13.5769 21.9992 12.4467C20.8689 11.3165 19.0365 11.3165 17.9063 12.4467C16.7761 13.5769 16.7761 15.4094 17.9063 16.5396C19.0365 17.6698 20.8689 17.6698 21.9992 16.5396Z" fill="white"/>
<path d="M56.4258 23.1012V20.2612H59.0458C59.5524 20.2612 59.9858 20.1612 60.3458 19.9612C60.7191 19.7612 61.0058 19.4812 61.2058 19.1212C61.4058 18.7479 61.5058 18.3212 61.5058 17.8412C61.5058 17.3346 61.4058 16.9012 61.2058 16.5412C61.0058 16.1679 60.7191 15.8879 60.3458 15.7012C59.9858 15.5012 59.5524 15.4012 59.0458 15.4012H56.4258V12.5612H58.8858C60.1258 12.5612 61.1858 12.7679 62.0658 13.1812C62.9591 13.5946 63.6391 14.1812 64.1058 14.9412C64.5858 15.7012 64.8258 16.6146 64.8258 17.6812V18.0012C64.8258 19.0412 64.5858 19.9479 64.1058 20.7212C63.6391 21.4812 62.9591 22.0679 62.0658 22.4812C61.1858 22.8946 60.1258 23.1012 58.8858 23.1012H56.4258ZM53.5458 27.2812V12.5612H56.8258V27.2812H53.5458ZM71.5089 27.6613C70.5489 27.6613 69.6956 27.5146 68.9489 27.2212C68.2022 26.9146 67.5689 26.5012 67.0489 25.9812C66.5422 25.4612 66.1556 24.8679 65.8889 24.2012C65.6222 23.5212 65.4889 22.8079 65.4889 22.0612V21.6012C65.4889 20.8412 65.6222 20.1212 65.8889 19.4412C66.1689 18.7479 66.5689 18.1412 67.0889 17.6212C67.6222 17.1012 68.2622 16.6946 69.0089 16.4012C69.7556 16.0946 70.5889 15.9412 71.5089 15.9412C72.4556 15.9412 73.2956 16.0946 74.0289 16.4012C74.7756 16.6946 75.4089 17.1012 75.9289 17.6212C76.4489 18.1412 76.8489 18.7479 77.1289 19.4412C77.4089 20.1212 77.5489 20.8412 77.5489 21.6012V22.0612C77.5489 22.8079 77.4156 23.5212 77.1489 24.2012C76.8822 24.8679 76.4889 25.4612 75.9689 25.9812C75.4622 26.5012 74.8356 26.9146 74.0889 27.2212C73.3422 27.5146 72.4822 27.6613 71.5089 27.6613ZM71.5089 24.9612C72.1356 24.9612 72.6556 24.8279 73.0689 24.5612C73.4822 24.2946 73.7956 23.9212 74.0089 23.4412C74.2356 22.9612 74.3489 22.4279 74.3489 21.8412C74.3489 21.2146 74.2356 20.6679 74.0089 20.2012C73.7822 19.7212 73.4556 19.3412 73.0289 19.0612C72.6156 18.7812 72.1089 18.6412 71.5089 18.6412C70.9222 18.6412 70.4156 18.7812 69.9889 19.0612C69.5622 19.3412 69.2356 19.7212 69.0089 20.2012C68.7956 20.6679 68.6889 21.2146 68.6889 21.8412C68.6889 22.4279 68.7956 22.9612 69.0089 23.4412C69.2222 23.9212 69.5422 24.2946 69.9689 24.5612C70.3956 24.8279 70.9089 24.9612 71.5089 24.9612ZM79.3822 27.2812V16.3212H81.9222V21.0212H81.8622C81.8622 19.4746 82.1888 18.2812 82.8422 17.4412C83.5088 16.6012 84.4688 16.1812 85.7222 16.1812H86.1422V18.9412H85.3422C84.4622 18.9412 83.7822 19.1812 83.3022 19.6612C82.8222 20.1279 82.5822 20.8079 82.5822 21.7012V27.2812H79.3822ZM92.634 27.4213C91.5274 27.4213 90.634 27.2879 89.954 27.0212C89.274 26.7412 88.774 26.2812 88.454 25.6412C88.1474 24.9879 87.994 24.1079 87.994 23.0012V13.3612H90.974V23.1212C90.974 23.6412 91.1074 24.0412 91.374 24.3212C91.654 24.5879 92.0474 24.7212 92.554 24.7212H94.174V27.4213H92.634ZM86.334 18.6612V16.3212H94.174V18.6612H86.334ZM96.1659 27.2812V16.2212C96.1659 14.9546 96.5259 14.0146 97.2459 13.4012C97.9659 12.7879 99.0259 12.4812 100.426 12.4812H101.826V14.8812H100.286C99.9259 14.8812 99.6459 14.9812 99.4459 15.1812C99.2459 15.3812 99.1459 15.6612 99.1459 16.0212V27.2812H96.1659ZM94.8659 18.8812V16.5412H101.986V18.8812H94.8659ZM108.464 27.6613C107.504 27.6613 106.65 27.5146 105.904 27.2212C105.157 26.9146 104.524 26.5012 104.004 25.9812C103.497 25.4612 103.11 24.8679 102.844 24.2012C102.577 23.5212 102.444 22.8079 102.444 22.0612V21.6012C102.444 20.8412 102.577 20.1212 102.844 19.4412C103.124 18.7479 103.524 18.1412 104.044 17.6212C104.577 17.1012 105.217 16.6946 105.964 16.4012C106.71 16.0946 107.544 15.9412 108.464 15.9412C109.41 15.9412 110.25 16.0946 110.984 16.4012C111.73 16.6946 112.364 17.1012 112.884 17.6212C113.404 18.1412 113.804 18.7479 114.084 19.4412C114.364 20.1212 114.504 20.8412 114.504 21.6012V22.0612C114.504 22.8079 114.37 23.5212 114.104 24.2012C113.837 24.8679 113.444 25.4612 112.924 25.9812C112.417 26.5012 111.79 26.9146 111.044 27.2212C110.297 27.5146 109.437 27.6613 108.464 27.6613ZM108.464 24.9612C109.09 24.9612 109.61 24.8279 110.024 24.5612C110.437 24.2946 110.75 23.9212 110.964 23.4412C111.19 22.9612 111.304 22.4279 111.304 21.8412C111.304 21.2146 111.19 20.6679 110.964 20.2012C110.737 19.7212 110.41 19.3412 109.984 19.0612C109.57 18.7812 109.064 18.6412 108.464 18.6412C107.877 18.6412 107.37 18.7812 106.944 19.0612C106.517 19.3412 106.19 19.7212 105.964 20.2012C105.75 20.6679 105.644 21.2146 105.644 21.8412C105.644 22.4279 105.75 22.9612 105.964 23.4412C106.177 23.9212 106.497 24.2946 106.924 24.5612C107.35 24.8279 107.864 24.9612 108.464 24.9612ZM116.477 27.2812V12.6812H119.697V27.2812H116.477ZM115.177 15.0412V12.6812H119.697V15.0412H115.177ZM122.765 27.2812V16.3212H125.965V27.2812H122.765ZM121.305 18.6812V16.3212H125.965V18.6812H121.305ZM124.005 15.2412C123.405 15.2412 122.959 15.0879 122.665 14.7812C122.385 14.4612 122.245 14.0612 122.245 13.5812C122.245 13.0879 122.385 12.6879 122.665 12.3812C122.959 12.0612 123.405 11.9012 124.005 11.9012C124.605 11.9012 125.045 12.0612 125.325 12.3812C125.619 12.6879 125.765 13.0879 125.765 13.5812C125.765 14.0612 125.619 14.4612 125.325 14.7812C125.045 15.0879 124.605 15.2412 124.005 15.2412ZM133.865 27.6613C132.905 27.6613 132.052 27.5146 131.305 27.2212C130.558 26.9146 129.925 26.5012 129.405 25.9812C128.898 25.4612 128.512 24.8679 128.245 24.2012C127.978 23.5212 127.845 22.8079 127.845 22.0612V21.6012C127.845 20.8412 127.978 20.1212 128.245 19.4412C128.525 18.7479 128.925 18.1412 129.445 17.6212C129.978 17.1012 130.618 16.6946 131.365 16.4012C132.112 16.0946 132.945 15.9412 133.865 15.9412C134.812 15.9412 135.652 16.0946 136.385 16.4012C137.132 16.6946 137.765 17.1012 138.285 17.6212C138.805 18.1412 139.205 18.7479 139.485 19.4412C139.765 20.1212 139.905 20.8412 139.905 21.6012V22.0612C139.905 22.8079 139.772 23.5212 139.505 24.2012C139.238 24.8679 138.845 25.4612 138.325 25.9812C137.818 26.5012 137.192 26.9146 136.445 27.2212C135.698 27.5146 134.838 27.6613 133.865 27.6613ZM133.865 24.9612C134.492 24.9612 135.012 24.8279 135.425 24.5612C135.838 24.2946 136.152 23.9212 136.365 23.4412C136.592 22.9612 136.705 22.4279 136.705 21.8412C136.705 21.2146 136.592 20.6679 136.365 20.2012C136.138 19.7212 135.812 19.3412 135.385 19.0612C134.972 18.7812 134.465 18.6412 133.865 18.6412C133.278 18.6412 132.772 18.7812 132.345 19.0612C131.918 19.3412 131.592 19.7212 131.365 20.2012C131.152 20.6679 131.045 21.2146 131.045 21.8412C131.045 22.4279 131.152 22.9612 131.365 23.4412C131.578 23.9212 131.898 24.2946 132.325 24.5612C132.752 24.8279 133.265 24.9612 133.865 24.9612Z" fill="white"/>
</svg>
