<svg width="141" height="40" viewBox="0 0 141 40" fill="none" xmlns="http://www.w3.org/2000/svg">
<path d="M31.5294 14.2118C31.5294 18.8819 28.7623 22.9082 24.7793 24.7351C26.4612 23.3496 27.5322 21.248 27.5322 18.896C27.5322 14.7642 24.2259 11.4042 20.112 11.3205C20.0574 11.3167 20.0075 11.3167 19.9529 11.3167C19.8983 11.3167 19.8485 11.3167 19.7939 11.3205C18.2673 11.4033 17.0588 12.6663 17.0588 14.2108V28.6814C17.0588 33.4748 13.1699 37.3638 8.37646 37.3638V14.2118C8.37646 7.81928 13.5605 2.63528 19.9529 2.63528C26.3454 2.63528 31.5294 7.81928 31.5294 14.2118Z" fill="black"/>
<path d="M21.9992 16.2582C23.1294 15.128 23.1294 13.2956 21.9992 12.1654C20.8689 11.0351 19.0365 11.0351 17.9063 12.1654C16.7761 13.2956 16.7761 15.128 17.9063 16.2582C19.0365 17.3884 20.8689 17.3884 21.9992 16.2582Z" fill="black"/>
<path d="M56.4258 22.82V19.98H59.0458C59.5524 19.98 59.9858 19.88 60.3458 19.68C60.7191 19.48 61.0058 19.2 61.2058 18.84C61.4058 18.4667 61.5058 18.04 61.5058 17.56C61.5058 17.0533 61.4058 16.62 61.2058 16.26C61.0058 15.8867 60.7191 15.6067 60.3458 15.42C59.9858 15.22 59.5524 15.12 59.0458 15.12H56.4258V12.28H58.8858C60.1258 12.28 61.1858 12.4867 62.0658 12.9C62.9591 13.3133 63.6391 13.9 64.1058 14.66C64.5858 15.42 64.8258 16.3333 64.8258 17.4V17.72C64.8258 18.76 64.5858 19.6667 64.1058 20.44C63.6391 21.2 62.9591 21.7867 62.0658 22.2C61.1858 22.6133 60.1258 22.82 58.8858 22.82H56.4258ZM53.5458 27V12.28H56.8258V27H53.5458ZM71.5089 27.38C70.5489 27.38 69.6956 27.2333 68.9489 26.94C68.2022 26.6333 67.5689 26.22 67.0489 25.7C66.5422 25.18 66.1556 24.5867 65.8889 23.92C65.6222 23.24 65.4889 22.5267 65.4889 21.78V21.32C65.4889 20.56 65.6222 19.84 65.8889 19.16C66.1689 18.4667 66.5689 17.86 67.0889 17.34C67.6222 16.82 68.2622 16.4133 69.0089 16.12C69.7556 15.8133 70.5889 15.66 71.5089 15.66C72.4556 15.66 73.2956 15.8133 74.0289 16.12C74.7756 16.4133 75.4089 16.82 75.9289 17.34C76.4489 17.86 76.8489 18.4667 77.1289 19.16C77.4089 19.84 77.5489 20.56 77.5489 21.32V21.78C77.5489 22.5267 77.4156 23.24 77.1489 23.92C76.8822 24.5867 76.4889 25.18 75.9689 25.7C75.4622 26.22 74.8356 26.6333 74.0889 26.94C73.3422 27.2333 72.4822 27.38 71.5089 27.38ZM71.5089 24.68C72.1356 24.68 72.6556 24.5467 73.0689 24.28C73.4822 24.0133 73.7956 23.64 74.0089 23.16C74.2356 22.68 74.3489 22.1467 74.3489 21.56C74.3489 20.9333 74.2356 20.3867 74.0089 19.92C73.7822 19.44 73.4556 19.06 73.0289 18.78C72.6156 18.5 72.1089 18.36 71.5089 18.36C70.9222 18.36 70.4156 18.5 69.9889 18.78C69.5622 19.06 69.2356 19.44 69.0089 19.92C68.7956 20.3867 68.6889 20.9333 68.6889 21.56C68.6889 22.1467 68.7956 22.68 69.0089 23.16C69.2222 23.64 69.5422 24.0133 69.9689 24.28C70.3956 24.5467 70.9089 24.68 71.5089 24.68ZM79.3822 27V16.04H81.9222V20.74H81.8622C81.8622 19.1933 82.1888 18 82.8422 17.16C83.5088 16.32 84.4688 15.9 85.7222 15.9H86.1422V18.66H85.3422C84.4622 18.66 83.7822 18.9 83.3022 19.38C82.8222 19.8467 82.5822 20.5267 82.5822 21.42V27H79.3822ZM92.634 27.14C91.5274 27.14 90.634 27.0067 89.954 26.74C89.274 26.46 88.774 26 88.454 25.36C88.1474 24.7067 87.994 23.8267 87.994 22.72V13.08H90.974V22.84C90.974 23.36 91.1074 23.76 91.374 24.04C91.654 24.3067 92.0474 24.44 92.554 24.44H94.174V27.14H92.634ZM86.334 18.38V16.04H94.174V18.38H86.334ZM96.1659 27V15.94C96.1659 14.6733 96.5259 13.7333 97.2459 13.12C97.9659 12.5067 99.0259 12.2 100.426 12.2H101.826V14.6H100.286C99.9259 14.6 99.6459 14.7 99.4459 14.9C99.2459 15.1 99.1459 15.38 99.1459 15.74V27H96.1659ZM94.8659 18.6V16.26H101.986V18.6H94.8659ZM108.464 27.38C107.504 27.38 106.65 27.2333 105.904 26.94C105.157 26.6333 104.524 26.22 104.004 25.7C103.497 25.18 103.11 24.5867 102.844 23.92C102.577 23.24 102.444 22.5267 102.444 21.78V21.32C102.444 20.56 102.577 19.84 102.844 19.16C103.124 18.4667 103.524 17.86 104.044 17.34C104.577 16.82 105.217 16.4133 105.964 16.12C106.71 15.8133 107.544 15.66 108.464 15.66C109.41 15.66 110.25 15.8133 110.984 16.12C111.73 16.4133 112.364 16.82 112.884 17.34C113.404 17.86 113.804 18.4667 114.084 19.16C114.364 19.84 114.504 20.56 114.504 21.32V21.78C114.504 22.5267 114.37 23.24 114.104 23.92C113.837 24.5867 113.444 25.18 112.924 25.7C112.417 26.22 111.79 26.6333 111.044 26.94C110.297 27.2333 109.437 27.38 108.464 27.38ZM108.464 24.68C109.09 24.68 109.61 24.5467 110.024 24.28C110.437 24.0133 110.75 23.64 110.964 23.16C111.19 22.68 111.304 22.1467 111.304 21.56C111.304 20.9333 111.19 20.3867 110.964 19.92C110.737 19.44 110.41 19.06 109.984 18.78C109.57 18.5 109.064 18.36 108.464 18.36C107.877 18.36 107.37 18.5 106.944 18.78C106.517 19.06 106.19 19.44 105.964 19.92C105.75 20.3867 105.644 20.9333 105.644 21.56C105.644 22.1467 105.75 22.68 105.964 23.16C106.177 23.64 106.497 24.0133 106.924 24.28C107.35 24.5467 107.864 24.68 108.464 24.68ZM116.477 27V12.4H119.697V27H116.477ZM115.177 14.76V12.4H119.697V14.76H115.177ZM122.765 27V16.04H125.965V27H122.765ZM121.305 18.4V16.04H125.965V18.4H121.305ZM124.005 14.96C123.405 14.96 122.959 14.8067 122.665 14.5C122.385 14.18 122.245 13.78 122.245 13.3C122.245 12.8067 122.385 12.4067 122.665 12.1C122.959 11.78 123.405 11.62 124.005 11.62C124.605 11.62 125.045 11.78 125.325 12.1C125.619 12.4067 125.765 12.8067 125.765 13.3C125.765 13.78 125.619 14.18 125.325 14.5C125.045 14.8067 124.605 14.96 124.005 14.96ZM133.865 27.38C132.905 27.38 132.052 27.2333 131.305 26.94C130.558 26.6333 129.925 26.22 129.405 25.7C128.898 25.18 128.512 24.5867 128.245 23.92C127.978 23.24 127.845 22.5267 127.845 21.78V21.32C127.845 20.56 127.978 19.84 128.245 19.16C128.525 18.4667 128.925 17.86 129.445 17.34C129.978 16.82 130.618 16.4133 131.365 16.12C132.112 15.8133 132.945 15.66 133.865 15.66C134.812 15.66 135.652 15.8133 136.385 16.12C137.132 16.4133 137.765 16.82 138.285 17.34C138.805 17.86 139.205 18.4667 139.485 19.16C139.765 19.84 139.905 20.56 139.905 21.32V21.78C139.905 22.5267 139.772 23.24 139.505 23.92C139.238 24.5867 138.845 25.18 138.325 25.7C137.818 26.22 137.192 26.6333 136.445 26.94C135.698 27.2333 134.838 27.38 133.865 27.38ZM133.865 24.68C134.492 24.68 135.012 24.5467 135.425 24.28C135.838 24.0133 136.152 23.64 136.365 23.16C136.592 22.68 136.705 22.1467 136.705 21.56C136.705 20.9333 136.592 20.3867 136.365 19.92C136.138 19.44 135.812 19.06 135.385 18.78C134.972 18.5 134.465 18.36 133.865 18.36C133.278 18.36 132.772 18.5 132.345 18.78C131.918 19.06 131.592 19.44 131.365 19.92C131.152 20.3867 131.045 20.9333 131.045 21.56C131.045 22.1467 131.152 22.68 131.365 23.16C131.578 23.64 131.898 24.0133 132.325 24.28C132.752 24.5467 133.265 24.68 133.865 24.68Z" fill="black"/>
</svg>
