<svg width="35" height="20" viewBox="0 0 35 20" fill="none" xmlns="http://www.w3.org/2000/svg">
    <path d="M6.46916 17.8008C6.07101 17.4427 5.27472 17.2381 5.07564 16.8801C4.6775 16.2151 5.17518 15.3967 6.27009 14.6294C8.4599 13.1972 12.6902 15.0898 15.1289 15.8059C21.4992 17.6985 28.9147 20.4095 34.5386 15.7547C29.6115 20.7164 22.2458 20.1026 15.9252 18.8238C14.3326 18.5169 7.81291 16.1639 6.96684 17.9031" fill="#164669"/>
    <path d="M14.4826 9.20716C14.4826 10.9463 14.2835 12.4297 13.8854 13.6573C14.2338 13.7596 14.5324 13.8619 14.831 13.9642C15.2291 14.1176 15.6273 14.2199 16.0254 14.3223C16.2743 14.3734 16.4734 14.4757 16.7222 14.5269C16.772 14.5269 16.772 14.5269 16.8217 14.578C17.9664 13.0435 18.5636 11.202 18.5636 9.10486C18.5636 6.49616 17.6678 4.34783 15.9259 2.6087C14.184 0.869565 11.9444 0 9.35647 0C6.6192 0.0511509 4.42939 0.920716 2.63773 2.65985C0.895832 4.39898 0 6.54731 0 9.15601C0 12.7366 1.59259 15.3964 4.77777 17.1867C5.57406 17.5959 6.12152 17.8005 6.91781 17.954L4.97684 16.5729C4.97684 16.5729 4.97684 16.5217 5.02661 16.5217C5.02661 16.5217 5.07638 16.4706 5.07638 16.4194C5.07638 16.4194 5.07638 16.4194 5.07638 16.3683L5.12615 16.3171C5.17592 16.266 5.22569 16.2148 5.22569 16.1637C5.37499 16.0102 5.47453 15.9079 5.62383 15.7545C5.5243 15.601 5.42476 15.4987 5.32522 15.3453C4.42939 13.8619 3.93171 11.8159 3.93171 9.20716C4.03124 6.49616 4.47916 4.45013 5.37499 2.96675C6.27082 1.48338 7.5648 0.767263 9.25693 0.767263C10.8993 0.767263 12.1933 1.48338 13.0891 2.96675C14.0347 4.45013 14.4826 6.54731 14.4826 9.20716Z" fill="#164669"/>
</svg>
